<svg width="47" height="47" viewBox="0 0 47 47" fill="none" xmlns="http://www.w3.org/2000/svg">
<path d="M17.0895 45.5759C21.0196 45.5759 24.2093 42.3856 24.2093 38.4547V31.3335H17.0895C13.1594 31.3335 9.96973 34.5238 9.96973 38.4547C9.96973 42.3856 13.1594 45.5759 17.0895 45.5759Z" fill="#0ACF83"/>
<path d="M9.96973 24.212C9.96973 20.2811 13.1594 17.0908 17.0895 17.0908H24.2093V31.3332H17.0895C13.1594 31.3332 9.96973 28.1429 9.96973 24.212Z" fill="#A259FF"/>
<path d="M9.9704 9.96985C9.9704 6.03894 13.1601 2.84863 17.0902 2.84863H24.21V17.0911H17.0902C13.1601 17.0911 9.9704 13.9008 9.9704 9.96985Z" fill="#F24E1E"/>
<path d="M24.2094 2.84863H31.3291C35.2593 2.84863 38.4489 6.03894 38.4489 9.96985C38.4489 13.9008 35.2593 17.0911 31.3291 17.0911H24.2094V2.84863Z" fill="#FF7262"/>
<path d="M38.4489 24.212C38.4489 28.1429 35.2593 31.3332 31.3291 31.3332C27.399 31.3332 24.2094 28.1429 24.2094 24.212C24.2094 20.2811 27.399 17.0908 31.3291 17.0908C35.2593 17.0908 38.4489 20.2811 38.4489 24.212Z" fill="#1ABCFE"/>
</svg>
