<svg width="45" height="45" viewBox="0 0 45 45" fill="none" xmlns="http://www.w3.org/2000/svg">
<path fill-rule="evenodd" clip-rule="evenodd" d="M22.5 8C13.9364 8 7 14.6548 7 22.8707C7 29.4474 11.4344 35.0093 17.5978 36.9804C18.3707 37.0975 18.6759 36.6681 18.6759 36.2778C18.6759 35.9266 18.6555 34.7556 18.6555 33.5066C14.7703 34.1897 13.7533 32.5894 13.4482 31.7698C13.2651 31.3404 12.5125 30.0134 11.8615 29.6621C11.3123 29.3889 10.5394 28.6863 11.8412 28.6668C13.0617 28.6473 13.9364 29.7402 14.2211 30.189C15.6247 32.4333 17.8419 31.8088 18.7369 31.4185C18.8793 30.4622 19.2861 29.7987 19.7336 29.4279C16.2959 29.0571 12.6752 27.7691 12.6752 22.0901C12.6752 20.4704 13.2854 19.1238 14.2618 18.0895C14.0991 17.7187 13.5702 16.1965 14.4245 14.1474C14.4245 14.1474 15.7264 13.7571 18.6962 15.6696C19.937 15.3378 21.2592 15.1622 22.561 15.1622C23.8832 15.1622 25.185 15.3378 26.4259 15.6696C29.3957 13.7375 30.6772 14.1474 30.6772 14.1474C31.5315 16.1965 30.9823 17.7187 30.8399 18.0895C31.8366 19.1238 32.4265 20.4508 32.4265 22.0901C32.4265 27.7886 28.8058 29.0571 25.3478 29.4279C25.9173 29.8963 26.4055 30.7745 26.4055 32.1796C26.4055 34.1702 26.3852 35.7704 26.3852 36.2583C26.3852 36.6486 26.6699 37.117 27.4429 36.9609C33.7487 34.9118 38 29.2328 38 22.8512C38 14.6548 31.0636 8 22.5 8Z" fill="#514F5E"/>
</svg>
