<svg width="124" height="30" viewBox="0 0 124 30" fill="none" xmlns="http://www.w3.org/2000/svg">
<path fill-rule="evenodd" clip-rule="evenodd" d="M15.5 0C6.93635 0 0 6.88423 0 15.3835C0 22.187 4.43438 27.9407 10.5978 29.9797C11.3707 30.1008 11.6759 29.6567 11.6759 29.2529C11.6759 28.8895 11.6555 27.6782 11.6555 26.3862C7.77034 27.0928 6.75328 25.4373 6.44816 24.5894C6.26509 24.1453 5.51247 22.7725 4.86155 22.4091C4.31234 22.1264 3.53937 21.3997 4.84121 21.3795C6.06168 21.3593 6.93635 22.4898 7.22113 22.9542C8.62467 25.2758 10.8419 24.6298 11.7369 24.226C11.8793 23.2368 12.2861 22.5504 12.7336 22.1668C9.29593 21.7832 5.6752 20.4508 5.6752 14.576C5.6752 12.9004 6.28543 11.5074 7.26181 10.4374C7.09908 10.0538 6.57021 8.47911 7.42454 6.35933C7.42454 6.35933 8.72638 5.95557 11.6962 7.93403C12.937 7.59083 14.2592 7.40913 15.561 7.40913C16.8832 7.40913 18.185 7.59083 19.4259 7.93403C22.3957 5.93538 23.6772 6.35933 23.6772 6.35933C24.5315 8.47911 23.9823 10.0538 23.8399 10.4374C24.8366 11.5074 25.4265 12.8802 25.4265 14.576C25.4265 20.471 21.8058 21.7832 18.3478 22.1668C18.9173 22.6513 19.4055 23.5598 19.4055 25.0134C19.4055 27.0726 19.3852 28.728 19.3852 29.2327C19.3852 29.6365 19.6699 30.121 20.4429 29.9595C26.7487 27.8397 31 21.9649 31 15.3633C31 6.88423 24.0636 0 15.5 0Z" fill="#514F5E"/>
<path d="M77.7823 21.8928H77.7425C77.7624 21.8928 77.7624 21.9123 77.7823 21.9123H77.8022L77.7823 21.8928ZM77.7823 21.9123C77.6231 21.9123 77.2051 21.9903 76.7672 21.9903C75.3938 21.9903 74.9161 21.3663 74.9161 20.5474V15.1268H77.7226C77.8818 15.1268 78.0013 14.9903 78.0013 14.7953V11.8511C78.0013 11.6951 77.8619 11.5586 77.7226 11.5586H74.9161V7.89289C74.9161 7.7564 74.8166 7.6784 74.6573 7.6784H70.8357C70.6765 7.6784 70.5969 7.77589 70.5969 7.89289V11.6561C70.5969 11.6561 68.6662 12.1241 68.5467 12.1435C68.4074 12.1825 68.3278 12.2995 68.3278 12.436V14.7953C68.3278 14.9903 68.4671 15.1268 68.6264 15.1268H70.577V20.8204C70.577 25.0515 73.5825 25.4805 75.6327 25.4805C76.5682 25.4805 77.7027 25.188 77.8818 25.0905C77.9814 25.0515 78.0411 24.9345 78.0411 24.8176V22.2243C78.0411 22.0683 77.9416 21.9513 77.7823 21.9123ZM119.701 18.1101C119.701 14.9708 118.407 14.5614 117.053 14.6979C115.998 14.7563 115.143 15.2828 115.143 15.2828V21.3858C115.143 21.3858 115.998 21.9708 117.292 22.0098C119.104 22.0488 119.701 21.4053 119.701 18.1101ZM124 17.8371C124 23.7841 122.029 25.4805 118.606 25.4805C115.7 25.4805 114.147 24.0376 114.147 24.0376C114.147 24.0376 114.088 24.8371 113.988 24.9345C113.928 25.032 113.849 25.071 113.729 25.071H111.122C110.943 25.071 110.784 24.9345 110.784 24.7786L110.823 5.53357C110.823 5.37758 110.963 5.24109 111.122 5.24109H114.884C115.043 5.24109 115.182 5.37758 115.182 5.53357V12.0656C115.182 12.0656 116.635 11.1491 118.765 11.1491L118.745 11.1101C120.855 11.1101 124 11.8901 124 17.8371ZM108.574 11.5781H104.852C104.653 11.5781 104.554 11.7146 104.554 11.9096V21.3273C104.554 21.3273 103.578 21.9903 102.245 21.9903C100.931 21.9903 100.533 21.4053 100.533 20.0989V11.8706C100.533 11.7146 100.394 11.5781 100.234 11.5781H96.4525C96.2933 11.5781 96.1539 11.7146 96.1539 11.8706V20.7424C96.1539 24.5446 98.3235 25.5 101.309 25.5C103.777 25.5 105.768 24.1741 105.768 24.1741C105.768 24.1741 105.867 24.8566 105.907 24.954C105.947 25.032 106.066 25.11 106.186 25.11H108.554C108.753 25.11 108.853 24.9735 108.853 24.8176L108.893 11.8706C108.913 11.7146 108.753 11.5781 108.574 11.5781ZM66.6558 11.5586H62.8939C62.7347 11.5586 62.5954 11.7146 62.5954 11.9096V24.6226C62.5954 24.9735 62.8342 25.0905 63.1328 25.0905H66.5364C66.8947 25.0905 66.9743 24.9345 66.9743 24.6226V11.8511C66.9544 11.6951 66.8151 11.5586 66.6558 11.5586ZM64.7848 5.68956C63.4313 5.68956 62.3366 6.74248 62.3366 8.08787C62.3366 9.41377 63.4114 10.4862 64.7848 10.4862C66.1184 10.4862 67.1932 9.43326 67.1932 8.08787C67.1932 6.76197 66.1184 5.68956 64.7848 5.68956ZM93.9645 5.26059H90.2225C90.0632 5.26059 89.9239 5.39708 89.9239 5.55307V12.631H84.0721V5.55307C84.0721 5.39708 83.9327 5.26059 83.7735 5.26059H80.0116C79.8524 5.26059 79.713 5.39708 79.713 5.55307V24.7981C79.713 24.954 79.8723 25.0905 80.0116 25.0905H83.7735C83.9327 25.0905 84.0721 24.954 84.0721 24.7981V16.5697H89.9239L89.8841 24.7981C89.8841 24.954 90.0234 25.0905 90.1827 25.0905H93.9446C94.1038 25.0905 94.2431 24.954 94.2431 24.7981V5.55307C94.263 5.39708 94.1237 5.26059 93.9645 5.26059ZM60.585 13.7814V23.7256C60.585 23.7841 60.5651 23.9206 60.4855 23.9401C60.4855 23.9401 58.2761 25.4805 54.6337 25.4805C50.2348 25.4805 45 24.1351 45 15.2243C45 6.31351 49.5581 4.48065 54.0166 4.50015C57.8781 4.50015 59.4306 5.35808 59.6694 5.51407C59.7292 5.61156 59.769 5.67006 59.769 5.74805L59.0524 8.84831C59.0524 9.0043 58.8932 9.19928 58.6941 9.14079C58.0572 8.9458 57.1018 8.57533 54.8526 8.57533C52.2452 8.57533 49.4586 9.29677 49.4586 15.0488C49.4586 20.7814 52.1058 21.4638 54.0166 21.4638C55.6488 21.4638 56.226 21.2688 56.226 21.2688V17.2911H53.6185C53.4195 17.2911 53.2802 17.1547 53.2802 16.9987V13.8009C53.2802 13.6449 53.4195 13.5084 53.6185 13.5084H60.2467C60.4457 13.4889 60.585 13.6254 60.585 13.7814Z" fill="#514F5E"/>
</svg>
