<svg width="27" height="27" viewBox="0 0 27 27" fill="none" xmlns="http://www.w3.org/2000/svg">
<g clip-path="url(#clip0_573_504)">
<path d="M24.75 8.47656V19.1247C24.75 19.9855 24.4211 20.8139 23.8306 21.4402C23.24 22.0666 22.4324 22.4436 21.573 22.4941L21.375 22.4997H5.625C4.76414 22.4997 3.9358 22.1708 3.30946 21.5802C2.68312 20.9897 2.30613 20.1821 2.25563 19.3227L2.25 19.1247V8.47656L12.8756 15.5607L13.0061 15.6349C13.1599 15.7101 13.3288 15.7491 13.5 15.7491C13.6712 15.7491 13.8401 15.7101 13.9939 15.6349L14.1244 15.5607L24.75 8.47656Z" fill="#514F5E"/>
<path d="M21.375 4.5C22.59 4.5 23.6554 5.14125 24.2494 6.10538L13.5 13.2716L2.75061 6.10538C3.03268 5.64724 3.42023 5.2632 3.88091 4.98531C4.34159 4.70741 4.86205 4.54371 5.39886 4.50787L5.62499 4.5H21.375Z" fill="#514F5E"/>
</g>
<defs>
<clipPath id="clip0_573_504">
<rect width="27" height="27" fill="white"/>
</clipPath>
</defs>
</svg>
