<svg width="27" height="27" viewBox="0 0 27 27" fill="none" xmlns="http://www.w3.org/2000/svg">
<path d="M21.6337 17.168L18.7762 16.8417C18.4402 16.8023 18.0997 16.8395 17.7801 16.9505C17.4606 17.0616 17.1703 17.2436 16.9312 17.483L14.8612 19.553C11.6676 17.9287 9.07174 15.3329 7.44748 12.1392L9.52873 10.058C10.0125 9.57422 10.2487 8.89922 10.17 8.21297L9.84373 5.37797C9.77995 4.82917 9.51658 4.32299 9.10375 3.9558C8.69092 3.58861 8.15748 3.38606 7.60498 3.38672H5.65873C4.38748 3.38672 3.32998 4.44422 3.40873 5.71547C4.00498 15.323 11.6887 22.9955 21.285 23.5917C22.5562 23.6705 23.6137 22.613 23.6137 21.3417V19.3955C23.625 18.2592 22.77 17.303 21.6337 17.168Z" fill="#514F5E"/>
</svg>
