<svg width="47" height="47" viewBox="0 0 47 47" fill="none" xmlns="http://www.w3.org/2000/svg">
<path d="M9.63253 3.61523H36.1924C40.2192 3.61523 43.475 6.95444 43.475 11.0845V37.271C43.475 41.401 40.2192 44.7402 36.1924 44.7402H9.63253C5.6057 44.7402 2.34998 41.401 2.34998 37.271V11.0845C2.34998 6.95444 5.6057 3.61523 9.63253 3.61523Z" fill="#001E36"/>
<path d="M11.603 32.4555V14.371C11.603 14.248 11.6544 14.1777 11.7743 14.1777C12.0656 14.1777 12.3398 14.1777 12.7339 14.1601C13.1452 14.1426 13.5735 14.1426 14.0362 14.125C14.4989 14.1074 14.9958 14.1074 15.527 14.0898C16.0582 14.0723 16.5722 14.0723 17.0863 14.0723C18.4914 14.0723 19.6566 14.248 20.6162 14.6171C21.473 14.9159 22.2612 15.4079 22.9123 16.0582C23.4607 16.6206 23.8891 17.306 24.1632 18.0617C24.4203 18.7999 24.5573 19.5556 24.5573 20.3465C24.5573 21.8579 24.2146 23.1057 23.5292 24.0899C22.8438 25.0741 21.8842 25.8122 20.7704 26.234C19.6052 26.6734 18.32 26.8316 16.9149 26.8316C16.5037 26.8316 16.2295 26.8316 16.0582 26.814C15.8868 26.7964 15.6469 26.7964 15.3214 26.7964V32.4379C15.3385 32.5609 15.2528 32.6664 15.1329 32.684C15.1157 32.684 15.0986 32.684 15.0643 32.684H11.8086C11.6715 32.684 11.603 32.6137 11.603 32.4555ZM15.3385 17.5696V23.4748C15.5784 23.4924 15.8011 23.5099 16.0068 23.5099H16.9149C17.5832 23.5099 18.2515 23.4045 18.8855 23.1936C19.4339 23.0354 19.9136 22.7015 20.2906 22.2621C20.6505 21.8227 20.8218 21.2252 20.8218 20.4519C20.839 19.9071 20.7019 19.3623 20.4277 18.8878C20.1364 18.4308 19.7252 18.0793 19.2282 17.886C18.5942 17.6224 17.9088 17.5169 17.2062 17.5345C16.7607 17.5345 16.3666 17.5345 16.041 17.5521C15.6983 17.5345 15.4584 17.5521 15.3385 17.5696Z" fill="#31A8FF"/>
<path d="M35.2499 22.4026C34.7358 22.1214 34.1875 21.928 33.6049 21.805C32.9709 21.6644 32.3368 21.5765 31.6857 21.5765C31.343 21.559 30.9831 21.6117 30.6576 21.6996C30.4348 21.7523 30.2463 21.8753 30.1264 22.0511C30.0407 22.1917 29.9893 22.3674 29.9893 22.5256C29.9893 22.6838 30.0578 22.8419 30.1606 22.9825C30.3149 23.1759 30.5205 23.334 30.7432 23.4571C31.1374 23.668 31.5486 23.8613 31.9599 24.037C32.8852 24.3534 33.7762 24.7927 34.5987 25.32C35.1642 25.6891 35.6268 26.1811 35.9524 26.7787C36.2266 27.3411 36.3637 27.9562 36.3465 28.5889C36.3637 29.4149 36.1238 30.2409 35.6783 30.9263C35.1985 31.6293 34.5302 32.1741 33.7591 32.4905C32.9194 32.8596 31.8913 33.0529 30.6576 33.0529C29.8693 33.0529 29.0983 32.9826 28.3272 32.8244C27.7274 32.719 27.1277 32.5256 26.5793 32.262C26.4594 32.1917 26.3737 32.0687 26.3909 31.9281V28.8701C26.3909 28.8174 26.408 28.7471 26.4594 28.7119C26.5108 28.6768 26.5622 28.6943 26.6136 28.7295C27.2819 29.1337 27.9844 29.4149 28.7384 29.5907C29.3896 29.7664 30.075 29.8543 30.7604 29.8543C31.4115 29.8543 31.8742 29.7664 32.1826 29.6082C32.4568 29.4852 32.6453 29.1864 32.6453 28.8701C32.6453 28.624 32.5082 28.3956 32.234 28.1671C31.9599 27.9386 31.3944 27.675 30.5548 27.3411C29.6809 27.0247 28.8755 26.6029 28.1215 26.0757C27.5903 25.6891 27.1448 25.1794 26.8192 24.5818C26.5451 24.0194 26.408 23.4043 26.4251 22.7892C26.4251 22.0335 26.6307 21.3129 27.0077 20.6627C27.4361 19.9597 28.0701 19.3973 28.8069 19.0458C29.6123 18.624 30.6233 18.4307 31.8399 18.4307C32.5425 18.4307 33.2622 18.4834 33.9647 18.5888C34.4788 18.6591 34.9757 18.7997 35.4384 18.9931C35.5069 19.0106 35.5754 19.0809 35.6097 19.1512C35.6268 19.2215 35.644 19.2918 35.644 19.3621V22.2268C35.644 22.2971 35.6097 22.3674 35.5583 22.4026C35.4041 22.4377 35.3184 22.4377 35.2499 22.4026Z" fill="#31A8FF"/>
</svg>
