<svg width="81" height="30" viewBox="0 0 81 30" fill="none" xmlns="http://www.w3.org/2000/svg">
<g clip-path="url(#clip0_570_388)">
<path d="M41.8187 9.93708L45.6724 9.68866C45.7603 10.317 45.9215 10.7846 46.1852 11.1207C46.6102 11.6468 47.1963 11.9098 47.9729 11.9098C48.5443 11.9098 48.9986 11.7783 49.3063 11.5006C49.5993 11.2815 49.7752 10.9307 49.7752 10.5654C49.7752 10.2147 49.614 9.87863 49.3356 9.65944C49.0425 9.39641 48.3538 9.13338 47.2695 8.89957C45.4966 8.50503 44.2218 7.97897 43.4745 7.30678C42.7272 6.67843 42.3023 5.75783 42.3316 4.77877C42.3316 4.10659 42.5367 3.4344 42.9177 2.87912C43.3573 2.25077 43.958 1.75393 44.676 1.47629C45.4526 1.1402 46.5369 0.964844 47.8996 0.964844C49.57 0.964844 50.8448 1.27171 51.724 1.90006C52.6031 2.5138 53.1306 3.50746 53.2918 4.86645L49.4821 5.08564C49.3795 4.50113 49.1744 4.07736 48.8374 3.79972C48.5004 3.52208 48.0608 3.39056 47.4893 3.39056C47.0204 3.39056 46.6688 3.49285 46.4343 3.68282C46.2145 3.85817 46.068 4.1212 46.0827 4.41346C46.0827 4.63265 46.1999 4.83723 46.3757 4.96874C46.5662 5.14409 47.0204 5.30483 47.7384 5.45096C49.5114 5.83089 50.7715 6.21083 51.5481 6.60537C52.3247 6.99991 52.8815 7.48214 53.2185 8.05203C53.5702 8.63654 53.746 9.30873 53.7314 9.99553C53.7314 10.8138 53.4969 11.6322 53.028 12.319C52.5445 13.035 51.8705 13.5903 51.0792 13.9264C50.244 14.2917 49.189 14.4816 47.9289 14.4816C45.7017 14.4816 44.1632 14.0579 43.2987 13.1957C42.4342 12.3336 41.9213 11.2522 41.8187 9.93708ZM0.923119 14.2625V1.19865H7.678C8.92348 1.19865 9.89056 1.30094 10.5499 1.52013C11.1946 1.72471 11.7661 2.14848 12.1471 2.71838C12.572 3.34672 12.7771 4.07736 12.7625 4.83723C12.8064 6.12315 12.1471 7.35062 11.0188 7.99358C10.5792 8.242 10.0957 8.41735 9.5975 8.50503C9.96382 8.60732 10.3301 8.78267 10.6525 8.98725C10.9016 9.19183 11.1067 9.42563 11.2972 9.67405C11.517 9.92247 11.7075 10.2001 11.8687 10.4924L13.8321 14.2771H9.23119L7.06259 10.2586C6.78419 9.74711 6.54975 9.41102 6.32996 9.25028C6.0369 9.0457 5.68524 8.94341 5.33358 8.94341H4.98191V14.2478H0.923119V14.2625ZM4.98191 6.48847H6.69627C7.06259 6.45924 7.41426 6.40079 7.76592 6.31311C8.02967 6.26928 8.26411 6.12315 8.42529 5.90396C8.82091 5.3779 8.7623 4.63265 8.27876 4.17965C8.01501 3.96046 7.50217 3.84356 6.76954 3.84356H4.98191V6.48847ZM0 25.4558L3.85365 25.2074C3.94157 25.8358 4.10275 26.3034 4.3665 26.6395C4.77677 27.1655 5.37753 27.4432 6.15412 27.4432C6.72558 27.4432 7.17981 27.3117 7.48752 27.034C7.78057 26.8002 7.9564 26.4641 7.9564 26.0988C7.9564 25.7481 7.79522 25.412 7.51682 25.1928C7.22377 24.9298 6.53509 24.6667 5.43614 24.4329C3.66317 24.0384 2.38839 23.5123 1.6411 22.8401C0.893813 22.2118 0.468886 21.2912 0.498191 20.3121C0.498191 19.64 0.703329 18.9678 1.0843 18.4125C1.52388 17.7841 2.12464 17.2873 2.84262 17.0097C3.61921 16.6736 4.70351 16.4982 6.06621 16.4982C7.73661 16.4982 9.0114 16.8051 9.89056 17.4334C10.7697 18.0618 11.2826 19.0408 11.4437 20.3998L7.63405 20.619C7.53148 20.0345 7.32634 19.6107 6.98933 19.3331C6.66697 19.0554 6.21274 18.9239 5.64128 18.9385C5.1724 18.9385 4.82073 19.0408 4.58629 19.2454C4.35185 19.4208 4.21997 19.6838 4.23462 19.976C4.23462 20.1952 4.35185 20.3998 4.52768 20.5313C4.71816 20.7067 5.1724 20.8674 5.89038 21.0136C7.66335 21.3935 8.92348 21.7734 9.70007 22.168C10.4767 22.5625 11.0335 23.0447 11.3705 23.6146C11.7221 24.1991 11.898 24.8713 11.898 25.5435C11.898 26.3618 11.6489 27.1655 11.1946 27.8523C10.7111 28.5683 10.0371 29.1236 9.24584 29.4597C8.41064 29.825 7.35564 30.015 6.09551 30.015C3.86831 30.015 2.32978 29.5912 1.46527 28.7291C0.60076 27.8523 0.117221 26.771 0 25.4558Z" fill="#514F5E"/>
<path d="M19.488 24.4328L23.034 25.4995C22.8435 26.3909 22.4479 27.2384 21.9057 27.9837C21.4075 28.6412 20.7482 29.1527 20.0009 29.4888C19.2389 29.8249 18.2719 30.0002 17.0997 30.0002C15.6783 30.0002 14.5061 29.7957 13.6123 29.3865C12.7039 28.9773 11.9273 28.2467 11.2679 27.2092C10.6085 26.1717 10.2862 24.8419 10.2862 23.2199C10.2862 21.0572 10.8576 19.3914 12.0152 18.237C13.1727 17.0826 14.7992 16.498 16.9092 16.498C18.5649 16.498 19.8544 16.8341 20.8068 17.4917C21.7446 18.1639 22.4479 19.1868 22.9168 20.5604L19.3415 21.3495C19.2536 21.0426 19.1217 20.7357 18.9459 20.4727C18.7261 20.1659 18.4477 19.932 18.1107 19.7567C17.7737 19.5813 17.3927 19.5083 17.0117 19.5083C16.0886 19.5083 15.3853 19.8736 14.9018 20.6188C14.5354 21.1595 14.345 22.0217 14.345 23.1907C14.345 24.6374 14.5647 25.631 15.0043 26.1717C15.4439 26.7124 16.0593 26.9754 16.8652 26.9754C17.6418 26.9754 18.2279 26.7562 18.6235 26.3324C19.0192 25.8794 19.3122 25.2511 19.488 24.4328ZM27.7668 16.7172H31.8109V21.291H36.2361V16.7172H40.3095V29.781H36.2361V24.4912H31.8109V29.781H27.7668V16.7172Z" fill="#514F5E"/>
<path d="M39.7527 23.2491C39.7527 21.1156 40.3534 19.4498 41.5403 18.2662C42.7272 17.0825 44.3976 16.4834 46.5222 16.4834C48.7055 16.4834 50.3759 17.0679 51.5627 18.2369C52.7496 19.406 53.3357 21.0426 53.3357 23.1468C53.3357 24.6812 53.072 25.9232 52.5591 26.9023C52.0609 27.8667 51.2843 28.6558 50.3319 29.1819C49.3502 29.7226 48.134 30.0002 46.6834 30.0002C45.2035 30.0002 43.9873 29.7664 43.0202 29.2988C42.0239 28.802 41.2033 28.0275 40.6612 27.0777C40.0604 26.0548 39.7527 24.7834 39.7527 23.2491ZM43.7968 23.2637C43.7968 24.5789 44.0459 25.5287 44.5295 26.1132C45.013 26.6831 45.687 26.9754 46.5369 26.9754C47.4014 26.9754 48.0754 26.6977 48.5589 26.1278C49.0425 25.5579 49.2769 24.5496 49.2769 23.0884C49.2769 21.8609 49.0278 20.9549 48.5296 20.3996C48.0315 19.8297 47.3574 19.5521 46.5076 19.5521C45.7603 19.5229 45.0423 19.8443 44.5441 20.4142C44.0459 20.9841 43.7968 21.934 43.7968 23.2637ZM57.4824 23.2491C57.4824 21.1156 58.0832 19.4498 59.2701 18.2662C60.4569 17.0825 62.1273 16.4834 64.252 16.4834C66.4352 16.4834 68.1203 17.0679 69.2925 18.2369C70.4647 19.406 71.0655 21.0426 71.0655 23.1468C71.0655 24.6812 70.8017 25.9232 70.2889 26.9023C69.7907 27.8667 69.0141 28.6558 68.0617 29.1819C67.0799 29.7226 65.8638 30.0002 64.4131 30.0002C62.9332 30.0002 61.7171 29.7664 60.75 29.2988C59.7536 28.802 58.933 28.0275 58.3909 27.0777C57.7901 26.0548 57.4824 24.7834 57.4824 23.2491ZM61.5266 23.2637C61.5266 24.5789 61.7757 25.5287 62.2592 26.1132C62.7427 26.6831 63.4168 26.9754 64.2666 26.9754C65.1311 26.9754 65.8051 26.6977 66.2887 26.1278C66.7722 25.5579 67.0067 24.5496 67.0067 23.0884C67.0067 21.8609 66.7576 20.9549 66.2594 20.3996C65.7612 19.8297 65.0872 19.5521 64.2373 19.5521C63.49 19.5229 62.7574 19.8443 62.2739 20.4142C61.7757 20.9841 61.5266 21.934 61.5266 23.2637Z" fill="#514F5E"/>
<path d="M70.6406 16.7168H74.6847V26.5658H81V29.7806H70.6259V16.7168H70.6406Z" fill="#514F5E"/>
<mask id="mask0_570_388" style="mask-type:luminance" maskUnits="userSpaceOnUse" x="52" y="1" width="19" height="18">
<path d="M66.183 15.9629C70.2546 12.903 71.5102 7.71591 68.9874 4.37729C66.4646 1.03866 61.1188 0.812713 57.0472 3.87263C52.9756 6.93254 51.7201 12.1196 54.2429 15.4582C56.7657 18.7968 62.1115 19.0228 66.183 15.9629Z" fill="white"/>
</mask>
<g mask="url(#mask0_570_388)">
<mask id="mask1_570_388" style="mask-type:luminance" maskUnits="userSpaceOnUse" x="43" y="-8" width="37" height="36">
<path d="M43.8591 8.26172L64.8993 -7.55058L79.4585 11.7168L58.4183 27.5291L43.8591 8.26172Z" fill="white"/>
</mask>
<g mask="url(#mask1_570_388)">
<mask id="mask2_570_388" style="mask-type:luminance" maskUnits="userSpaceOnUse" x="52" y="1" width="19" height="18">
<path d="M66.183 15.9629C70.2546 12.903 71.5102 7.71591 68.9874 4.37729C66.4646 1.03866 61.1188 0.812713 57.0472 3.87263C52.9756 6.93254 51.7201 12.1196 54.2429 15.4582C56.7657 18.7968 62.1115 19.0228 66.183 15.9629Z" fill="white"/>
</mask>
<g mask="url(#mask2_570_388)">
<mask id="mask3_570_388" style="mask-type:luminance" maskUnits="userSpaceOnUse" x="49" y="-2" width="25" height="24">
<path d="M49.7181 9.54883L64.4511 -1.52305L73.5956 10.579L58.8626 21.6509L49.7181 9.54883Z" fill="white"/>
</mask>
<g mask="url(#mask3_570_388)">
<path d="M66.183 15.9629C70.2546 12.903 71.5102 7.71591 68.9874 4.37729C66.4646 1.03866 61.1188 0.812713 57.0472 3.87263C52.9756 6.93254 51.7201 12.1196 54.2429 15.4582C56.7657 18.7968 62.1115 19.0228 66.183 15.9629Z" stroke="#514F5E" stroke-width="4" stroke-miterlimit="10"/>
</g>
<mask id="mask4_570_388" style="mask-type:luminance" maskUnits="userSpaceOnUse" x="51" y="-1" width="21" height="22">
<path d="M51.8176 16.8105L56.8971 -0.869469L71.5087 3.31215L66.4291 20.9922L51.8176 16.8105Z" fill="white"/>
</mask>
<g mask="url(#mask4_570_388)">
<path d="M49.7181 9.54297L64.4468 -1.52456L73.5956 10.5819L58.8668 21.6494L49.7181 9.54297Z" stroke="#514F5E" stroke-width="4" stroke-miterlimit="10"/>
</g>
<path d="M66.183 15.9629C70.2546 12.903 71.5102 7.71591 68.9874 4.37729C66.4646 1.03866 61.1188 0.812713 57.0472 3.87263C52.9756 6.93254 51.7201 12.1196 54.2429 15.4582C56.7657 18.7968 62.1115 19.0228 66.183 15.9629Z" stroke="#514F5E" stroke-width="4" stroke-miterlimit="10"/>
<mask id="mask5_570_388" style="mask-type:luminance" maskUnits="userSpaceOnUse" x="49" y="-2" width="25" height="24">
<path d="M49.7181 9.54883L64.4511 -1.52305L73.5956 10.579L58.8626 21.6509L49.7181 9.54883Z" fill="white"/>
</mask>
<g mask="url(#mask5_570_388)">
<path d="M66.183 15.9629C70.2546 12.903 71.5102 7.71591 68.9874 4.37729C66.4646 1.03866 61.1188 0.812713 57.0472 3.87263C52.9756 6.93254 51.7201 12.1196 54.2429 15.4582C56.7657 18.7968 62.1115 19.0228 66.183 15.9629Z" stroke="#514F5E" stroke-width="4" stroke-miterlimit="10"/>
</g>
<mask id="mask6_570_388" style="mask-type:luminance" maskUnits="userSpaceOnUse" x="51" y="-1" width="21" height="22">
<path d="M51.8176 16.8105L56.8971 -0.869469L71.5087 3.31215L66.4291 20.9922L51.8176 16.8105Z" fill="white"/>
</mask>
<g mask="url(#mask6_570_388)">
<path d="M49.7181 9.54297L64.4468 -1.52456L73.5956 10.5819L58.8668 21.6494L49.7181 9.54297Z" stroke="#514F5E" stroke-width="4" stroke-miterlimit="10"/>
</g>
<path d="M43.8591 8.26172L64.8993 -7.55058L79.4585 11.7168L58.4183 27.5291L43.8591 8.26172Z" stroke="#514F5E" stroke-width="4" stroke-miterlimit="10"/>
</g>
<path d="M66.183 15.9629C70.2546 12.903 71.5102 7.71591 68.9874 4.37729C66.4646 1.03866 61.1188 0.812713 57.0472 3.87263C52.9756 6.93254 51.7201 12.1196 54.2429 15.4582C56.7657 18.7968 62.1115 19.0228 66.183 15.9629Z" stroke="#514F5E" stroke-width="4" stroke-miterlimit="10"/>
<path d="M57.4971 8.95759L58.9624 7.9347L60.7647 10.4919C61.0724 10.9011 61.3068 11.3395 61.4826 11.8217C61.5852 12.187 61.5559 12.5816 61.4094 12.9323C61.2189 13.3706 60.9112 13.736 60.5009 13.999C60.0174 14.3351 59.6071 14.5251 59.2554 14.5835C58.9184 14.642 58.5668 14.5835 58.2444 14.4374C57.8927 14.262 57.585 14.0136 57.3506 13.6921L58.6107 12.5231C58.7133 12.6838 58.8452 12.83 58.9917 12.9469C59.0943 13.0199 59.2115 13.0638 59.3434 13.0638C59.4459 13.0638 59.5485 13.0199 59.6218 12.9615C59.7683 12.8738 59.8708 12.6985 59.8562 12.5231C59.8122 12.2747 59.7097 12.0263 59.5485 11.8363L57.4971 8.95759ZM61.8929 10.5796L63.2263 9.52749C63.3728 9.70284 63.5633 9.83436 63.7685 9.90742C64.0615 9.9951 64.3692 9.93665 64.6183 9.74668C64.7941 9.62978 64.9407 9.46904 64.9993 9.26446C65.0872 9.00143 64.9407 8.70918 64.6769 8.6215C64.633 8.60689 64.589 8.59227 64.5451 8.59227C64.3692 8.57766 64.0615 8.65072 63.6073 8.84069C62.86 9.14756 62.2739 9.26446 61.8343 9.22062C61.4094 9.17678 61.0138 8.95759 60.7793 8.59227C60.6035 8.34386 60.5156 8.0516 60.5009 7.75935C60.5009 7.42325 60.5888 7.08716 60.7793 6.80952C61.0577 6.41497 61.3947 6.07888 61.805 5.81585C62.4204 5.39208 62.9626 5.1875 63.4314 5.1875C63.9003 5.1875 64.3399 5.40669 64.7502 5.85969L63.4314 6.89719C63.1677 6.5611 62.6695 6.48804 62.3325 6.75107L62.2885 6.7949C62.142 6.88258 62.0394 7.0141 61.9808 7.17484C61.9369 7.29174 61.9662 7.42325 62.0394 7.52554C62.0981 7.59861 62.186 7.65706 62.2885 7.65706C62.4058 7.67167 62.6109 7.61322 62.9039 7.4817C63.6366 7.17484 64.1934 6.99948 64.5744 6.94103C64.8967 6.88258 65.2337 6.91181 65.5414 7.04332C65.8198 7.16022 66.0543 7.3648 66.2155 7.61322C66.4206 7.90547 66.5378 8.25618 66.5525 8.6215C66.5671 9.00143 66.4646 9.36675 66.2594 9.68823C65.9957 10.0828 65.6587 10.4189 65.263 10.6819C64.4571 11.2372 63.7978 11.471 63.2703 11.3833C62.6988 11.2956 62.2299 11.0034 61.8929 10.5796Z" fill="#514F5E"/>
</g>
</g>
</g>
<defs>
<clipPath id="clip0_570_388">
<rect width="81" height="30" fill="white"/>
</clipPath>
</defs>
</svg>
