<svg width="45" height="45" viewBox="0 0 45 45" fill="none" xmlns="http://www.w3.org/2000/svg">
<path d="M37.0161 8.25602C37.0161 8.25602 40.2539 7.00074 39.984 10.0493C39.8941 11.3046 39.0847 15.6981 38.4551 20.4503L36.2966 34.5274C36.2966 34.5274 36.1168 36.5897 34.4979 36.9484C32.8789 37.307 30.4507 35.6931 30.0009 35.3344C29.6412 35.0654 23.2557 31.0305 21.0072 29.058C20.3776 28.52 19.6581 27.444 21.0971 26.1887L30.5406 17.2224C31.6199 16.1464 32.6991 13.6359 28.2022 16.6844L15.6109 25.2025C15.6109 25.2025 14.1719 26.0991 11.4738 25.2921L5.62785 23.4988C5.62785 23.4988 3.46934 22.1539 7.15679 20.8089C16.1506 16.5947 27.2129 12.2908 37.0161 8.25602Z" fill="#514F5E"/>
</svg>
