<svg width="47" height="47" viewBox="0 0 47 47" fill="none" xmlns="http://www.w3.org/2000/svg">
<mask id="mask0_573_476" style="mask-type:alpha" maskUnits="userSpaceOnUse" x="3" y="3" width="41" height="41">
<path fill-rule="evenodd" clip-rule="evenodd" d="M31.8543 43.0991C32.4835 43.3442 33.201 43.3285 33.8361 43.0229L42.0611 39.0652C42.9254 38.6493 43.475 37.7746 43.475 36.815V9.979C43.475 9.0194 42.9254 8.14469 42.0612 7.72881L33.8361 3.77095C33.0026 3.3699 32.0272 3.46813 31.2957 3.99994C31.1912 4.07591 31.0916 4.16073 30.9982 4.2542L15.2524 18.6195L8.39381 13.4132C7.75533 12.9286 6.8623 12.9683 6.26932 13.5077L4.06956 15.5087C3.34423 16.1685 3.3434 17.3096 4.06776 17.9705L10.0157 23.3969L4.06776 28.8234C3.3434 29.4842 3.34423 30.6254 4.06956 31.2851L6.26932 33.2861C6.8623 33.8256 7.75533 33.8653 8.39381 33.3806L15.2524 28.1744L30.9982 42.5396C31.2473 42.7889 31.5398 42.9765 31.8543 43.0991ZM33.4936 14.3278L21.5461 23.3969L33.4936 32.466V14.3278Z" fill="white"/>
</mask>
<g mask="url(#mask0_573_476)">
<path d="M42.0615 7.73512L33.83 3.77182C32.8772 3.31307 31.7385 3.50658 30.9908 4.25433L4.04392 28.8235C3.31912 29.4843 3.31995 30.6255 4.04572 31.2852L6.24682 33.2863C6.84016 33.8257 7.73375 33.8654 8.37259 33.3807L40.8228 8.76332C41.9115 7.93743 43.4751 8.7139 43.4751 10.0804V9.98483C43.4751 9.02563 42.9257 8.15124 42.0615 7.73512Z" fill="#0065A9"/>
<g filter="url(#filter0_d_573_476)">
<path d="M42.0614 39.0587L33.8299 43.0221C32.8771 43.4809 31.7384 43.2873 30.9907 42.5396L4.04386 17.9704C3.31906 17.3095 3.31989 16.1684 4.04566 15.5086L6.24676 13.5076C6.8401 12.9682 7.73369 12.9285 8.37253 13.4131L40.8228 38.0306C41.9114 38.8564 43.4751 38.08 43.4751 36.7135V36.8091C43.4751 37.7682 42.9256 38.6426 42.0614 39.0587Z" fill="#007ACC"/>
</g>
<g filter="url(#filter1_d_573_476)">
<path d="M33.8301 43.0229C32.877 43.4814 31.7384 43.2874 30.9905 42.5396C31.9119 43.461 33.4874 42.8084 33.4874 41.5054V5.28845C33.4874 3.98538 31.9119 3.3328 30.9905 4.25421C31.7384 3.50639 32.877 3.3126 33.8301 3.77095L42.0602 7.72882C42.925 8.1447 43.4749 9.01941 43.4749 9.979V36.815C43.4749 37.7746 42.925 38.6493 42.0601 39.0652L33.8301 43.0229Z" fill="#1F9CF0"/>
</g>
<g style="mix-blend-mode:overlay" opacity="0.25">
<path fill-rule="evenodd" clip-rule="evenodd" d="M31.8301 43.0991C32.4594 43.3442 33.1769 43.3285 33.8119 43.0229L42.0369 39.0652C42.9012 38.6493 43.4508 37.7746 43.4508 36.8149V9.97902C43.4508 9.01938 42.9013 8.14468 42.037 7.7288L33.8119 3.77095C32.9785 3.3699 32.003 3.46813 31.2715 3.99993C31.167 4.07591 31.0675 4.16073 30.9741 4.2542L15.2282 18.6194L8.36963 13.4132C7.73119 12.9286 6.83813 12.9683 6.24515 13.5077L4.04539 15.5087C3.32006 16.1685 3.31923 17.3096 4.04359 17.9705L9.99156 23.3969L4.04359 28.8234C3.31923 29.4842 3.32006 30.6253 4.04539 31.2851L6.24515 33.2861C6.83813 33.8255 7.73119 33.8652 8.36963 33.3806L15.2282 28.1744L30.9741 42.5396C31.2231 42.7888 31.5156 42.9766 31.8301 43.0991ZM33.4694 14.3278L21.5219 23.3969L33.4694 32.466V14.3278Z" fill="url(#paint0_linear_573_476)"/>
</g>
</g>
<defs>
<filter id="filter0_d_573_476" x="-4.83255" y="4.74137" width="56.641" height="46.8605" filterUnits="userSpaceOnUse" color-interpolation-filters="sRGB">
<feFlood flood-opacity="0" result="BackgroundImageFix"/>
<feColorMatrix in="SourceAlpha" type="matrix" values="0 0 0 0 0 0 0 0 0 0 0 0 0 0 0 0 0 0 127 0" result="hardAlpha"/>
<feOffset/>
<feGaussianBlur stdDeviation="4.16667"/>
<feColorMatrix type="matrix" values="0 0 0 0 0 0 0 0 0 0 0 0 0 0 0 0 0 0 0.25 0"/>
<feBlend mode="overlay" in2="BackgroundImageFix" result="effect1_dropShadow_573_476"/>
<feBlend mode="normal" in="SourceGraphic" in2="effect1_dropShadow_573_476" result="shape"/>
</filter>
<filter id="filter1_d_573_476" x="22.6572" y="-4.80844" width="29.1511" height="56.4103" filterUnits="userSpaceOnUse" color-interpolation-filters="sRGB">
<feFlood flood-opacity="0" result="BackgroundImageFix"/>
<feColorMatrix in="SourceAlpha" type="matrix" values="0 0 0 0 0 0 0 0 0 0 0 0 0 0 0 0 0 0 127 0" result="hardAlpha"/>
<feOffset/>
<feGaussianBlur stdDeviation="4.16667"/>
<feColorMatrix type="matrix" values="0 0 0 0 0 0 0 0 0 0 0 0 0 0 0 0 0 0 0.25 0"/>
<feBlend mode="overlay" in2="BackgroundImageFix" result="effect1_dropShadow_573_476"/>
<feBlend mode="normal" in="SourceGraphic" in2="effect1_dropShadow_573_476" result="shape"/>
</filter>
<linearGradient id="paint0_linear_573_476" x1="23.4758" y1="3.5249" x2="23.4758" y2="43.269" gradientUnits="userSpaceOnUse">
<stop stop-color="white"/>
<stop offset="1" stop-color="white" stop-opacity="0"/>
</linearGradient>
</defs>
</svg>
