<svg width="164" height="42" viewBox="0 0 164 42" fill="none" xmlns="http://www.w3.org/2000/svg">
<path fill-rule="evenodd" clip-rule="evenodd" d="M21 0.5C9.39764 0.5 0 9.90845 0 21.5242C0 30.8222 6.00787 38.6856 14.3583 41.4723C15.4055 41.6378 15.8189 41.0308 15.8189 40.479C15.8189 39.9824 15.7913 38.3269 15.7913 36.5611C10.5276 37.5268 9.14961 35.2644 8.73622 34.1055C8.48819 33.4986 7.4685 31.6224 6.58661 31.1257C5.84252 30.7395 4.79528 29.7462 6.55905 29.7186C8.2126 29.691 9.39764 31.2361 9.78346 31.8707C11.685 35.0436 14.689 34.1607 15.9016 33.6089C16.0945 32.257 16.6457 31.3189 17.252 30.7947C12.5945 30.2704 7.68898 28.4494 7.68898 20.4205C7.68898 18.1305 8.51575 16.2267 9.83858 14.7644C9.61811 14.2402 8.90157 12.0881 10.0591 9.19109C10.0591 9.19109 11.8228 8.63928 15.8465 11.3432C17.5276 10.8741 19.3189 10.6258 21.0827 10.6258C22.874 10.6258 24.6378 10.8741 26.3189 11.3432C30.3425 8.61169 32.0787 9.19109 32.0787 9.19109C33.2362 12.0881 32.4921 14.2402 32.2992 14.7644C33.6496 16.2267 34.4488 18.1029 34.4488 20.4205C34.4488 28.477 29.5433 30.2704 24.8583 30.7947C25.6299 31.4568 26.2913 32.6984 26.2913 34.6849C26.2913 37.4992 26.2638 39.7617 26.2638 40.4514C26.2638 41.0032 26.6496 41.6654 27.6968 41.4447C36.2402 38.5477 42 30.5187 42 21.4966C42 9.90845 32.6024 0.5 21 0.5Z" fill="#EFE8DD"/>
<path d="M100.816 30.8468H100.762C100.789 30.8468 100.789 30.8747 100.816 30.8747H100.844L100.816 30.8468ZM100.816 30.8747C100.599 30.8747 100.027 30.9861 99.4286 30.9861C97.551 30.9861 96.898 30.0948 96.898 28.9248V21.1812H100.735C100.952 21.1812 101.116 20.9862 101.116 20.7076V16.5015C101.116 16.2787 100.925 16.0837 100.735 16.0837H96.898V10.847C96.898 10.652 96.7619 10.5406 96.5442 10.5406H91.3197C91.102 10.5406 90.9932 10.6798 90.9932 10.847V16.223C90.9932 16.223 88.3537 16.8915 88.1905 16.9194C88 16.9751 87.8912 17.1422 87.8912 17.3372V20.7076C87.8912 20.9862 88.0816 21.1812 88.2993 21.1812H90.966V29.3148C90.966 35.3593 95.0748 35.9721 97.8776 35.9721C99.1565 35.9721 100.707 35.5543 100.952 35.415C101.088 35.3593 101.17 35.1922 101.17 35.0251V31.3204C101.17 31.0975 101.034 30.9304 100.816 30.8747ZM158.122 25.443C158.122 20.9583 156.354 20.3734 154.503 20.5684C153.061 20.6519 151.891 21.404 151.891 21.404V30.1226C151.891 30.1226 153.061 30.9583 154.83 31.014C157.306 31.0697 158.122 30.1505 158.122 25.443ZM164 25.053C164 33.5488 161.306 35.9721 156.626 35.9721C152.653 35.9721 150.531 33.9109 150.531 33.9109C150.531 33.9109 150.449 35.0529 150.313 35.1922C150.231 35.3315 150.122 35.3872 149.959 35.3872H146.395C146.15 35.3872 145.932 35.1922 145.932 34.9694L145.986 7.47653C145.986 7.25369 146.177 7.0587 146.395 7.0587H151.537C151.755 7.0587 151.946 7.25369 151.946 7.47653V16.8079C151.946 16.8079 153.932 15.4988 156.844 15.4988L156.816 15.443C159.701 15.443 164 16.5572 164 25.053ZM142.912 16.1116H137.823C137.551 16.1116 137.415 16.3066 137.415 16.5851V30.039C137.415 30.039 136.082 30.9861 134.259 30.9861C132.463 30.9861 131.918 30.1505 131.918 28.2842V16.5294C131.918 16.3065 131.728 16.1116 131.51 16.1116H126.34C126.122 16.1116 125.932 16.3065 125.932 16.5294V29.2034C125.932 34.6351 128.898 36 132.98 36C136.354 36 139.075 34.1059 139.075 34.1059C139.075 34.1059 139.211 35.0808 139.265 35.2201C139.32 35.3315 139.483 35.4429 139.646 35.4429H142.884C143.156 35.4429 143.293 35.2479 143.293 35.0251L143.347 16.5294C143.374 16.3065 143.156 16.1116 142.912 16.1116ZM85.6054 16.0837H80.4626C80.2449 16.0837 80.0544 16.3066 80.0544 16.5851V34.7465C80.0544 35.2479 80.381 35.415 80.7891 35.415H85.4422C85.932 35.415 86.0408 35.1922 86.0408 34.7465V16.5015C86.0136 16.2787 85.8231 16.0837 85.6054 16.0837ZM83.0476 7.69936C81.1973 7.69936 79.7007 9.20354 79.7007 11.1255C79.7007 13.0197 81.1701 14.5517 83.0476 14.5517C84.8707 14.5517 86.3401 13.0475 86.3401 11.1255C86.3401 9.23139 84.8707 7.69936 83.0476 7.69936ZM122.939 7.08656H117.823C117.605 7.08656 117.415 7.28155 117.415 7.50438V17.6157H109.415V7.50438C109.415 7.28155 109.224 7.08656 109.007 7.08656H103.864C103.646 7.08656 103.456 7.28155 103.456 7.50438V34.9972C103.456 35.2201 103.673 35.415 103.864 35.415H109.007C109.224 35.415 109.415 35.2201 109.415 34.9972V23.2424H117.415L117.361 34.9972C117.361 35.2201 117.551 35.415 117.769 35.415H122.912C123.129 35.415 123.32 35.2201 123.32 34.9972V7.50438C123.347 7.28155 123.156 7.08656 122.939 7.08656ZM77.3061 19.2592V33.4652C77.3061 33.5488 77.2789 33.7437 77.1701 33.7716C77.1701 33.7716 74.1497 35.9721 69.1701 35.9721C63.1565 35.9721 56 34.0502 56 21.3204C56 8.59073 62.2313 5.97236 68.3265 6.00022C73.6054 6.00022 75.7279 7.22583 76.0544 7.44867C76.1361 7.58795 76.1905 7.67151 76.1905 7.78293L75.2109 12.2119C75.2109 12.4347 74.9932 12.7133 74.7211 12.6297C73.8503 12.3511 72.5442 11.8219 69.4694 11.8219C65.9048 11.8219 62.0952 12.8525 62.0952 21.0697C62.0952 29.2591 65.7143 30.234 68.3265 30.234C70.5578 30.234 71.3469 29.9555 71.3469 29.9555V24.2731H67.7823C67.5102 24.2731 67.3197 24.0781 67.3197 23.8552V19.287C67.3197 19.0642 67.5102 18.8692 67.7823 18.8692H76.8435C77.1156 18.8413 77.3061 19.0363 77.3061 19.2592Z" fill="#EFE8DD"/>
</svg>
