<svg width="40" height="40" viewBox="0 0 40 40" fill="none" xmlns="http://www.w3.org/2000/svg">
<path fill-rule="evenodd" clip-rule="evenodd" d="M20 4.5C11.1601 4.5 4 11.6137 4 20.3963C4 27.4266 8.57743 33.372 14.9396 35.479C15.7375 35.6042 16.0525 35.1453 16.0525 34.728C16.0525 34.3525 16.0315 33.1009 16.0315 31.7657C12.021 32.4959 10.9711 30.7852 10.6562 29.9091C10.4672 29.4501 9.69029 28.0316 9.01837 27.656C8.45144 27.364 7.65354 26.613 8.99737 26.5921C10.2572 26.5713 11.1601 27.7395 11.4541 28.2193C12.9029 30.6184 15.1916 29.9508 16.1155 29.5336C16.2625 28.5114 16.6824 27.8021 17.1444 27.4057C13.5958 27.0094 9.85827 25.6325 9.85827 19.5619C9.85827 17.8304 10.4882 16.3909 11.4961 15.2853C11.3281 14.8889 10.7822 13.2617 11.664 11.0713C11.664 11.0713 13.0079 10.6541 16.0735 12.6985C17.3543 12.3439 18.7192 12.1561 20.063 12.1561C21.4278 12.1561 22.7717 12.3439 24.0525 12.6985C27.1181 10.6332 28.4409 11.0713 28.4409 11.0713C29.3228 13.2617 28.7559 14.8889 28.6089 15.2853C29.6378 16.3909 30.2467 17.8095 30.2467 19.5619C30.2467 25.6534 26.5092 27.0094 22.9396 27.4057C23.5276 27.9064 24.0315 28.8451 24.0315 30.3472C24.0315 32.475 24.0105 34.1856 24.0105 34.7072C24.0105 35.1244 24.3045 35.6251 25.1024 35.4582C31.6115 33.2677 36 27.1971 36 20.3755C36 11.6137 28.8399 4.5 20 4.5Z" fill="#EFE8DD"/>
</svg>
