<svg width="40" height="40" viewBox="0 0 40 40" fill="none" xmlns="http://www.w3.org/2000/svg">
<path d="M8.19792 3.0769H30.8021C34.2292 3.0769 37 5.91878 37 9.43374V31.7201C37 35.235 34.2292 38.0769 30.8021 38.0769H8.19792C4.77083 38.0769 2 35.235 2 31.7201V9.43374C2 5.91878 4.77083 3.0769 8.19792 3.0769Z" fill="#001E36"/>
<path d="M9.875 27.6219V12.2308C9.875 12.1261 9.91875 12.0663 10.0208 12.0663C10.2687 12.0663 10.5021 12.0663 10.8375 12.0513C11.1875 12.0364 11.5521 12.0364 11.9458 12.0214C12.3396 12.0065 12.7625 12.0065 13.2146 11.9915C13.6667 11.9766 14.1042 11.9766 14.5417 11.9766C15.7375 11.9766 16.7292 12.1261 17.5458 12.4402C18.275 12.6945 18.9458 13.1133 19.5 13.6667C19.9667 14.1454 20.3313 14.7287 20.5646 15.3719C20.7833 16.0001 20.9 16.6432 20.9 17.3163C20.9 18.6026 20.6083 19.6646 20.025 20.5022C19.4417 21.3398 18.625 21.968 17.6771 22.327C16.6854 22.7009 15.5917 22.8355 14.3958 22.8355C14.0458 22.8355 13.8125 22.8355 13.6667 22.8206C13.5208 22.8056 13.3167 22.8056 13.0396 22.8056V27.6069C13.0542 27.7116 12.9812 27.8013 12.8792 27.8163C12.8646 27.8163 12.85 27.8163 12.8208 27.8163H10.05C9.93333 27.8163 9.875 27.7565 9.875 27.6219ZM13.0542 14.9531V19.9787C13.2583 19.9937 13.4479 20.0086 13.6229 20.0086H14.3958C14.9646 20.0086 15.5333 19.9189 16.0729 19.7394C16.5396 19.6048 16.9479 19.3206 17.2687 18.9466C17.575 18.5727 17.7208 18.0642 17.7208 17.406C17.7354 16.9424 17.6187 16.4787 17.3854 16.0749C17.1375 15.686 16.7875 15.3868 16.3646 15.2223C15.825 14.9979 15.2417 14.9082 14.6437 14.9231C14.2646 14.9231 13.9292 14.9231 13.6521 14.9381C13.3604 14.9231 13.1563 14.9381 13.0542 14.9531Z" fill="#31A8FF"/>
<path d="M29.9999 19.0664C29.5624 18.8271 29.0958 18.6625 28.5999 18.5578C28.0604 18.4382 27.5208 18.3634 26.9666 18.3634C26.6749 18.3484 26.3687 18.3933 26.0916 18.4681C25.902 18.513 25.7416 18.6177 25.6395 18.7672C25.5666 18.8869 25.5229 19.0365 25.5229 19.1711C25.5229 19.3057 25.5812 19.4403 25.6687 19.56C25.7999 19.7245 25.9749 19.8591 26.1645 19.9638C26.4999 20.1433 26.8499 20.3078 27.1999 20.4574C27.9874 20.7266 28.7458 21.1006 29.4458 21.5493C29.927 21.8634 30.3208 22.2822 30.5979 22.7907C30.8312 23.2694 30.9479 23.7929 30.9333 24.3313C30.9479 25.0343 30.7437 25.7373 30.3645 26.3206C29.9562 26.9189 29.3874 27.3826 28.7312 27.6518C28.0166 27.9659 27.1416 28.1305 26.0916 28.1305C25.4208 28.1305 24.7645 28.0706 24.1083 27.936C23.5979 27.8463 23.0874 27.6818 22.6208 27.4574C22.5187 27.3976 22.4458 27.2929 22.4604 27.1732V24.5706C22.4604 24.5258 22.4749 24.4659 22.5187 24.436C22.5624 24.4061 22.6062 24.4211 22.6499 24.451C23.2187 24.795 23.8166 25.0343 24.4583 25.1839C25.0124 25.3335 25.5958 25.4083 26.1791 25.4083C26.7333 25.4083 27.127 25.3335 27.3895 25.1989C27.6229 25.0942 27.7833 24.8399 27.7833 24.5706C27.7833 24.3612 27.6666 24.1668 27.4333 23.9724C27.1999 23.7779 26.7187 23.5536 26.0041 23.2694C25.2604 23.0001 24.5749 22.6412 23.9333 22.1924C23.4812 21.8634 23.102 21.4296 22.8249 20.9211C22.5916 20.4424 22.4749 19.9189 22.4895 19.3954C22.4895 18.7523 22.6645 18.139 22.9854 17.5856C23.3499 16.9873 23.8895 16.5087 24.5166 16.2095C25.202 15.8506 26.0624 15.686 27.0979 15.686C27.6958 15.686 28.3083 15.7309 28.9062 15.8206C29.3437 15.8805 29.7666 16.0001 30.1604 16.1647C30.2187 16.1796 30.277 16.2395 30.3062 16.2993C30.3208 16.3591 30.3354 16.4189 30.3354 16.4788V18.9168C30.3354 18.9766 30.3062 19.0365 30.2624 19.0664C30.1312 19.0963 30.0583 19.0963 29.9999 19.0664Z" fill="#31A8FF"/>
</svg>
