<svg width="125" height="46" viewBox="0 0 125 46" fill="none" xmlns="http://www.w3.org/2000/svg">
<g clip-path="url(#clip0_84_301)">
<path d="M64.5351 15.2364L70.4821 14.8555C70.6178 15.819 70.8665 16.536 71.2735 17.0513C71.9293 17.858 72.8338 18.2613 74.0322 18.2613C74.9141 18.2613 75.6151 18.0596 76.0899 17.6339C76.5422 17.2978 76.8135 16.7601 76.8135 16.1999C76.8135 15.6622 76.5648 15.1468 76.1351 14.8107C75.6829 14.4074 74.6201 14.0041 72.9468 13.6456C70.2108 13.0406 68.2435 12.234 67.0903 11.2033C65.9371 10.2398 65.2813 8.82825 65.3265 7.32703C65.3265 6.29634 65.6431 5.26566 66.231 4.41422C66.9094 3.45075 67.8365 2.68894 68.9445 2.26322C70.1429 1.74788 71.8162 1.479 73.9191 1.479C76.4969 1.479 78.4642 1.94953 79.8209 2.913C81.1776 3.85406 81.9917 5.37769 82.2404 7.46147L76.3613 7.79756C76.203 6.90131 75.8864 6.25153 75.3663 5.82581C74.8462 5.40009 74.1679 5.19844 73.286 5.19844C72.5624 5.19844 72.0197 5.35528 71.6579 5.64656C71.3187 5.91544 71.0926 6.31875 71.1152 6.76688C71.1152 7.10297 71.2961 7.41666 71.5675 7.61831C71.8614 7.88719 72.5624 8.13366 73.6704 8.35772C76.4065 8.94028 78.3511 9.52284 79.5496 10.1278C80.748 10.7328 81.6073 11.4722 82.1274 12.346C82.6701 13.2423 82.9414 14.273 82.9188 15.3261C82.9188 16.5808 82.557 17.8356 81.8334 18.8886C81.0872 19.9866 80.047 20.838 78.826 21.3533C77.5371 21.9135 75.909 22.2048 73.9644 22.2048C70.5273 22.2048 68.153 21.555 66.8189 20.233C65.4848 18.9111 64.6934 17.253 64.5351 15.2364ZM1.42457 21.8687V1.8375H11.8488C13.7708 1.8375 15.2632 1.99435 16.2808 2.33044C17.2757 2.64413 18.1576 3.29391 18.7455 4.16775C19.4012 5.13122 19.7178 6.25153 19.6952 7.41666C19.763 9.3884 18.7455 11.2705 17.0043 12.2564C16.326 12.6373 15.5798 12.9062 14.811 13.0406C15.3763 13.1975 15.9416 13.4663 16.439 13.78C16.8234 14.0937 17.14 14.4522 17.434 14.8331C17.7732 15.214 18.0671 15.6397 18.3158 16.0879L21.3459 21.8911H14.2457L10.8991 15.7294C10.4694 14.9452 10.1076 14.4298 9.76845 14.1833C9.31621 13.8697 8.77352 13.7128 8.23083 13.7128H7.68813V21.8463H1.42457V21.8687ZM7.68813 9.94856H10.3338C10.8991 9.90375 11.4418 9.81412 11.9844 9.67969C12.3915 9.61247 12.7533 9.38841 13.002 9.05231C13.6125 8.24569 13.5221 7.10297 12.7759 6.40838C12.3689 6.07228 11.5774 5.89303 10.4468 5.89303H7.68813V9.94856ZM0 39.0318L5.947 38.6509C6.08267 39.6144 6.3314 40.3314 6.73842 40.8468C7.37156 41.6534 8.29866 42.0791 9.49711 42.0791C10.379 42.0791 11.08 41.8774 11.5548 41.4517C12.0071 41.0932 12.2784 40.5779 12.2784 40.0177C12.2784 39.48 12.0297 38.9646 11.6 38.6285C11.1478 38.2252 10.085 37.8219 8.38911 37.4634C5.65304 36.8584 3.68578 36.0518 2.53256 35.0211C1.37934 34.0577 0.723589 32.6461 0.768813 31.1449C0.768813 30.1142 1.08538 29.0835 1.6733 28.232C2.35166 27.2686 3.27876 26.5068 4.38676 26.081C5.5852 25.5657 7.2585 25.2968 9.36143 25.2968C11.9392 25.2968 13.9065 25.7674 15.2632 26.7308C16.6199 27.6943 17.4114 29.1955 17.6601 31.2793L11.7809 31.6154C11.6226 30.7191 11.3061 30.0694 10.786 29.6436C10.2885 29.2179 9.58755 29.0163 8.70568 29.0387C7.98209 29.0387 7.4394 29.1955 7.07761 29.5092C6.71581 29.7781 6.5123 30.1814 6.53491 30.6295C6.53491 30.9656 6.71581 31.2793 6.98716 31.4809C7.28111 31.7498 7.98209 31.9963 9.09009 32.2204C11.8262 32.8029 13.7708 33.3855 14.9692 33.9904C16.1677 34.5954 17.027 35.3348 17.547 36.2087C18.0897 37.1049 18.3611 38.1356 18.3611 39.1663C18.3611 40.421 17.9767 41.6534 17.2757 42.7065C16.5295 43.8044 15.4893 44.6558 14.2683 45.1712C12.9794 45.7313 11.3513 46.0226 9.40666 46.0226C5.96961 46.0226 3.59533 45.3728 2.26122 44.0508C0.927098 42.7065 0.180897 41.0484 0 39.0318Z" fill="#EFE8DD"/>
<path d="M30.0745 37.4635L35.5466 39.0991C35.2526 40.4659 34.6421 41.7655 33.8055 42.9082C33.0367 43.9165 32.0191 44.7007 30.8659 45.216C29.6901 45.7314 28.1976 46.0002 26.3887 46.0002C24.1953 46.0002 22.3863 45.6865 21.007 45.0592C19.605 44.4318 18.4066 43.3115 17.389 41.7206C16.3715 40.1298 15.874 38.0908 15.874 35.6037C15.874 32.2876 16.7559 29.7333 18.5423 27.9632C20.3286 26.1931 22.8386 25.2969 26.0947 25.2969C28.6499 25.2969 30.6398 25.8122 32.1096 26.8205C33.5567 27.8512 34.6421 29.4196 35.3657 31.5258L29.8483 32.7357C29.7127 32.2652 29.5092 31.7947 29.2378 31.3914C28.8986 30.9208 28.469 30.5623 27.9489 30.2935C27.4288 30.0246 26.8409 29.9126 26.253 29.9126C24.8284 29.9126 23.7431 30.4727 22.9969 31.6154C22.4315 32.4445 22.1376 33.7664 22.1376 35.5589C22.1376 37.7771 22.4768 39.3008 23.1551 40.1298C23.8335 40.9588 24.7832 41.3621 26.0269 41.3621C27.2253 41.3621 28.1298 41.026 28.7403 40.3763C29.3509 39.6817 29.8031 38.7182 30.0745 37.4635ZM42.8503 25.633H49.0913V32.6461H55.9202V25.633H62.2063V45.6641H55.9202V37.5531H49.0913V45.6641H42.8503V25.633Z" fill="#EFE8DD"/>
<path d="M61.3467 35.6485C61.3467 32.3772 62.2738 29.8229 64.1054 28.008C65.9369 26.1931 68.5147 25.2744 71.7935 25.2744C75.1627 25.2744 77.7405 26.1707 79.5721 27.9632C81.4037 29.7557 82.3081 32.2652 82.3081 35.4917C82.3081 37.8443 81.9011 39.7488 81.1097 41.2501C80.3409 42.7289 79.1424 43.9388 77.6727 44.7454C76.1576 45.5745 74.2808 46.0002 72.0422 46.0002C69.7584 46.0002 67.8816 45.6417 66.3892 44.9247C64.8516 44.1629 63.5853 42.9753 62.7486 41.5189C61.8215 39.9505 61.3467 38.0012 61.3467 35.6485ZM67.5876 35.6709C67.5876 37.6875 67.972 39.1439 68.7182 40.0401C69.4644 40.914 70.5046 41.3621 71.8161 41.3621C73.1502 41.3621 74.1904 40.9364 74.9366 40.0625C75.6828 39.1887 76.0446 37.6427 76.0446 35.402C76.0446 33.5199 75.6602 32.1307 74.8914 31.2793C74.1226 30.4054 73.0824 29.9797 71.7709 29.9797C70.6177 29.9349 69.5097 30.4278 68.7409 31.3017C67.972 32.1755 67.5876 33.6319 67.5876 35.6709ZM88.7074 35.6485C88.7074 32.3772 89.6345 29.8229 91.4661 28.008C93.2977 26.1931 95.8754 25.2744 99.1542 25.2744C102.523 25.2744 105.124 26.1707 106.933 27.9632C108.742 29.7557 109.669 32.2652 109.669 35.4917C109.669 37.8443 109.262 39.7488 108.47 41.2501C107.702 42.7289 106.503 43.9388 105.033 44.7454C103.518 45.5745 101.642 46.0002 99.4029 46.0002C97.1191 46.0002 95.2423 45.6417 93.7499 44.9247C92.2123 44.1629 90.946 42.9753 90.1093 41.5189C89.1822 39.9505 88.7074 38.0012 88.7074 35.6485ZM94.9483 35.6709C94.9483 37.6875 95.3327 39.1439 96.079 40.0401C96.8252 40.914 97.8653 41.3621 99.1768 41.3621C100.511 41.3621 101.551 40.9364 102.297 40.0625C103.043 39.1887 103.405 37.6427 103.405 35.402C103.405 33.5199 103.021 32.1307 102.252 31.2793C101.483 30.4054 100.443 29.9797 99.1316 29.9797C97.9784 29.9349 96.8478 30.4278 96.1016 31.3017C95.3328 32.1755 94.9483 33.6319 94.9483 35.6709Z" fill="#EFE8DD"/>
<path d="M109.013 25.6328H115.254V40.7346H125V45.664H108.99V25.6328H109.013Z" fill="#EFE8DD"/>
<mask id="mask0_84_301" style="mask-type:luminance" maskUnits="userSpaceOnUse" x="81" y="2" width="28" height="26">
<path d="M102.135 24.4766C108.418 19.7847 110.356 11.8313 106.462 6.71203C102.569 1.5928 94.3194 1.24636 88.0361 5.93822C81.7528 10.6301 79.8153 18.5835 83.7085 23.7028C87.6017 28.822 95.8514 29.1685 102.135 24.4766Z" fill="white"/>
</mask>
<g mask="url(#mask0_84_301)">
<mask id="mask1_84_301" style="mask-type:luminance" maskUnits="userSpaceOnUse" x="67" y="-12" width="56" height="55">
<path d="M67.6846 12.6685L100.154 -11.5771L122.622 17.9662L90.1525 42.2117L67.6846 12.6685Z" fill="white"/>
</mask>
<g mask="url(#mask1_84_301)">
<mask id="mask2_84_301" style="mask-type:luminance" maskUnits="userSpaceOnUse" x="81" y="2" width="28" height="26">
<path d="M102.135 24.4766C108.418 19.7847 110.356 11.8313 106.462 6.71203C102.569 1.5928 94.3194 1.24636 88.0361 5.93822C81.7528 10.6301 79.8153 18.5835 83.7085 23.7028C87.6017 28.822 95.8514 29.1685 102.135 24.4766Z" fill="white"/>
</mask>
<g mask="url(#mask2_84_301)">
<mask id="mask3_84_301" style="mask-type:luminance" maskUnits="userSpaceOnUse" x="76" y="-3" width="38" height="37">
<path d="M76.7266 14.6411L99.4627 -2.33576L113.575 16.2207L90.8384 33.1976L76.7266 14.6411Z" fill="white"/>
</mask>
<g mask="url(#mask3_84_301)">
<path d="M102.136 24.4761C108.419 19.7842 110.357 11.8308 106.463 6.71154C102.57 1.59231 94.3204 1.24587 88.0371 5.93773C81.7538 10.6296 79.8162 18.5831 83.7094 23.7023C87.6026 28.8215 95.8523 29.168 102.136 24.4761Z" stroke="#EFE8DD" stroke-width="4" stroke-miterlimit="10"/>
</g>
<mask id="mask4_84_301" style="mask-type:luminance" maskUnits="userSpaceOnUse" x="79" y="-2" width="32" height="35">
<path d="M79.9658 25.7607L87.7852 -1.33132L110.353 5.09778L102.534 32.1899L79.9658 25.7607Z" fill="white"/>
</mask>
<g mask="url(#mask4_84_301)">
<path d="M76.7256 14.6187L99.4397 -2.33587L113.574 16.243L90.8594 33.1975L76.7256 14.6187Z" stroke="#EFE8DD" stroke-width="4" stroke-miterlimit="10"/>
</g>
<path d="M102.135 24.4766C108.418 19.7847 110.356 11.8313 106.462 6.71203C102.569 1.5928 94.3194 1.24636 88.0361 5.93822C81.7528 10.6301 79.8153 18.5835 83.7085 23.7028C87.6017 28.822 95.8514 29.1685 102.135 24.4766Z" stroke="#EFE8DD" stroke-width="4" stroke-miterlimit="10"/>
<mask id="mask5_84_301" style="mask-type:luminance" maskUnits="userSpaceOnUse" x="76" y="-3" width="38" height="37">
<path d="M76.7266 14.6411L99.4627 -2.33576L113.575 16.2207L90.8384 33.1976L76.7266 14.6411Z" fill="white"/>
</mask>
<g mask="url(#mask5_84_301)">
<path d="M102.136 24.4761C108.419 19.7842 110.357 11.8308 106.463 6.71154C102.57 1.59231 94.3204 1.24587 88.0371 5.93773C81.7538 10.6296 79.8162 18.5831 83.7094 23.7023C87.6026 28.8215 95.8523 29.168 102.136 24.4761Z" stroke="#EFE8DD" stroke-width="4" stroke-miterlimit="10"/>
</g>
<mask id="mask6_84_301" style="mask-type:luminance" maskUnits="userSpaceOnUse" x="79" y="-2" width="32" height="35">
<path d="M79.9658 25.7607L87.7852 -1.33132L110.353 5.09778L102.534 32.1899L79.9658 25.7607Z" fill="white"/>
</mask>
<g mask="url(#mask6_84_301)">
<path d="M76.7256 14.6187L99.4397 -2.33587L113.574 16.243L90.8594 33.1975L76.7256 14.6187Z" stroke="#EFE8DD" stroke-width="4" stroke-miterlimit="10"/>
</g>
<path d="M67.6846 12.6685L100.154 -11.5771L122.622 17.9662L90.1525 42.2117L67.6846 12.6685Z" stroke="#EFE8DD" stroke-width="4" stroke-miterlimit="10"/>
</g>
<path d="M102.135 24.4766C108.418 19.7847 110.356 11.8313 106.462 6.71203C102.569 1.5928 94.3194 1.24636 88.0361 5.93822C81.7528 10.6301 79.8153 18.5835 83.7085 23.7028C87.6017 28.822 95.8514 29.1685 102.135 24.4766Z" stroke="#EFE8DD" stroke-width="4" stroke-miterlimit="10"/>
<path d="M88.73 13.7349L90.9912 12.1665L93.7725 16.0876C94.2474 16.7149 94.6092 17.3871 94.8805 18.1265C95.0388 18.6867 94.9936 19.2917 94.7675 19.8294C94.4735 20.5016 93.9987 21.0617 93.3655 21.4651C92.6193 21.9804 91.9862 22.2717 91.4435 22.3613C90.9234 22.4509 90.3807 22.3613 89.8832 22.1372C89.3406 21.8684 88.8657 21.4875 88.5039 20.9945L90.4486 19.202C90.6068 19.4485 90.8103 19.6726 91.0365 19.8518C91.1948 19.9638 91.3757 20.0311 91.5792 20.0311C91.7374 20.0311 91.8957 19.9638 92.0088 19.8742C92.2349 19.7398 92.3932 19.4709 92.3706 19.202C92.3028 18.8211 92.1445 18.4402 91.8957 18.1489L88.73 13.7349ZM95.5137 16.222L97.5714 14.6088C97.7975 14.8776 98.0915 15.0793 98.408 15.1913C98.8603 15.3258 99.3351 15.2361 99.7195 14.9448C99.9909 14.7656 100.217 14.5191 100.307 14.2054C100.443 13.8021 100.217 13.354 99.81 13.2196C99.7421 13.1972 99.6743 13.1748 99.6065 13.1748C99.3351 13.1523 98.8603 13.2644 98.1593 13.5557C97.0061 14.0262 96.1016 14.2054 95.4232 14.1382C94.7675 14.071 94.1569 13.7349 93.7951 13.1748C93.5238 12.7938 93.3881 12.3457 93.3655 11.8976C93.3655 11.3823 93.5012 10.8669 93.7951 10.4412C94.2248 9.83622 94.7449 9.32088 95.378 8.91757C96.3277 8.26779 97.1644 7.9541 97.888 7.9541C98.6115 7.9541 99.2899 8.29019 99.923 8.98479L97.888 10.5756C97.4809 10.0603 96.7121 9.94826 96.192 10.3516L96.1242 10.4188C95.8981 10.5532 95.7398 10.7549 95.6493 11.0013C95.5815 11.1806 95.6267 11.3823 95.7398 11.5391C95.8302 11.6511 95.9659 11.7408 96.1242 11.7408C96.3051 11.7632 96.6217 11.6735 97.0739 11.4719C98.2045 11.0013 99.0638 10.7325 99.6517 10.6428C100.149 10.5532 100.669 10.598 101.144 10.7997C101.574 10.9789 101.936 11.2926 102.184 11.6735C102.501 12.1217 102.682 12.6594 102.704 13.2196C102.727 13.8021 102.569 14.3623 102.252 14.8552C101.845 15.4602 101.325 15.9755 100.714 16.3788C99.4708 17.2303 98.4533 17.5888 97.6392 17.4543C96.7573 17.3199 96.0338 16.8718 95.5137 16.222Z" fill="#EFE8DD"/>
</g>
</g>
</g>
<defs>
<clipPath id="clip0_84_301">
<rect width="125" height="46" fill="white"/>
</clipPath>
</defs>
</svg>
